<?xml version="1.0" encoding="UTF-8" standalone="no"?>
<svg
   xmlns:dc="http://purl.org/dc/elements/1.1/"
   xmlns:cc="http://creativecommons.org/ns#"
   xmlns:rdf="http://www.w3.org/1999/02/22-rdf-syntax-ns#"
   xmlns:svg="http://www.w3.org/2000/svg"
   xmlns="http://www.w3.org/2000/svg"
   xmlns:sodipodi="http://sodipodi.sourceforge.net/DTD/sodipodi-0.dtd"
   xmlns:inkscape="http://www.inkscape.org/namespaces/inkscape"
   version="1.1"
   id="Layer_1"
   x="0px"
   y="0px"
   width="1180.5657"
   height="623.34485"
   viewBox="0 0 1180.5657 623.34485"
   enable-background="new 0 0 1434.979 947"
   xml:space="preserve"
   sodipodi:docname="ferris.svg"
   inkscape:version="1.0.1 (3bc2e813f5, 2020-09-07)"><metadata
   id="metadata51"><rdf:RDF><cc:Work
       rdf:about=""><dc:format>image/svg+xml</dc:format><dc:type
         rdf:resource="http://purl.org/dc/dcmitype/StillImage" /><dc:title></dc:title></cc:Work></rdf:RDF></metadata><defs
   id="defs49" /><sodipodi:namedview
   pagecolor="#ffffff"
   bordercolor="#666666"
   borderopacity="1"
   objecttolerance="10"
   gridtolerance="10"
   guidetolerance="10"
   inkscape:pageopacity="0"
   inkscape:pageshadow="2"
   inkscape:window-width="3840"
   inkscape:window-height="2096"
   id="namedview47"
   showgrid="false"
   inkscape:zoom="0.91848034"
   inkscape:cx="327.93064"
   inkscape:cy="591.13829"
   inkscape:window-x="0"
   inkscape:window-y="27"
   inkscape:window-maximized="1"
   inkscape:current-layer="Layer_1"
   inkscape:document-rotation="0"
   fit-margin-top="5"
   fit-margin-left="5"
   fit-margin-right="5"
   fit-margin-bottom="5"
   lock-margins="true" />
<!--<rect fill="#FFFFFF" width="1434.979" height="947"/>-->


















<g
   id="g1322"
   transform="translate(-136.62665,1779.6824)"><path
     style="fill:#a42a00"
     d="m 1050.9503,-1221.1858 c 0.9285,-5.708 7.0147,-24.3923 10.8686,-33.3661 1.8032,-4.1986 6.9045,-15.0589 11.3363,-24.1339 11.7364,-24.0326 28.21,-64.5935 28.21,-69.4579 0,-0.6953 -5.0123,2.0465 -11.1384,6.093 -41.4213,27.3602 -115.42729,52.0882 -190.86159,63.7737 -121.4349,18.8113 -276.4742,12.2803 -391.23719,-16.481 -39.82961,-9.9819 -81.37979,-24.7961 -102.51278,-36.5496 -4.07088,-2.2641 -6.25,-3.0174 -6.25,-2.1606 0,2.1784 21.20962,44.4797 28.2197,56.2824 11.96112,20.1387 22.34022,43.1541 24.35205,54 0.69467,3.745 0.62939,3.9067 -1.02412,2.5369 -0.97135,-0.8047 -5.42944,-6.485 -9.90686,-12.6228 -4.47742,-6.1378 -19.71159,-25.2794 -33.8537,-42.5369 -40.90545,-49.9165 -52.9813,-65.9321 -54.32461,-72.0481 -0.75004,-3.415 -0.11917,-4.0481 8.84834,-8.8801 l 5.81081,-3.1311 17.68919,6.9981 c 85.5072,33.8279 184.26284,57.0825 278.68917,65.6248 53.7118,4.859 112.0768,4.8616 163.5,0.01 81.9656,-7.7375 165.2705,-29.5801 235.37609,-61.7156 17.1177,-7.8466 31.6986,-13.4094 44.5639,-11.4526 12.247,1.8628 29.06,10.8012 29.06,13.5768 0,2.7417 -25.3948,41.1566 -57.956,87.6705 -5.8792,8.3984 -13.7181,20.153 -17.4197,26.1213 -3.7017,5.9683 -7.6212,11.9765 -8.7101,13.3515 l -1.9799,2.5 0.6508,-4 z"
     id="path1284"
     sodipodi:nodetypes="cssssssssssssssscsscssssssccc" /><path
     style="fill:#f54b00"
     d="m 1087.3868,-1166.7584 c 0.053,-13.3909 8.0751,-38.8523 20.4081,-64.7766 23.0183,-48.3854 40.9279,-103.288 36.1925,-110.95 -1.3631,-2.2056 -14.2004,-9.1734 -21.4331,-11.6334 -8.6615,-2.946 -21.4159,-4.9538 -27.3755,-4.3095 -9.3586,1.0117 -22.0729,4.7266 -32.4374,9.4776 -70.10565,32.1355 -153.41065,53.9781 -235.37615,61.7156 -51.4233,4.8544 -109.7883,4.8518 -163.5,-0.01 -94.4264,-8.5426 -193.182,-31.7972 -278.6892,-65.6251 l -17.6892,-6.9981 -5.8108,3.1101 c -10.327,5.5272 -21.3108,15.3215 -21.3108,19.0029 0,10.676 25.1386,58.4638 47.9066,91.0691 24.4195,34.9703 32.7262,48.9454 40.0401,67.3633 3.4224,8.6184 4.9945,16.6367 3.2618,16.6367 -0.5849,0 -5.9335,-5.2549 -11.886,-11.6777 -5.9524,-6.4228 -39.2307,-40.0603 -73.9517,-74.75 -34.7211,-34.6897 -65.6389,-66.2478 -68.7064,-70.1289 -7.3378,-9.2843 -10.6421,-16.4668 -10.6546,-23.1602 -0.011,-5.9156 -0.4961,-5.2911 25.3848,-32.681 7.092,-7.5055 12.717,-13.7758 12.5,-13.934 -0.217,-0.1583 -3.7696,-2.2444 -7.8946,-4.6359 -29.2899,-16.981 -52.81535,-38.3206 -61.62525,-55.8995 -2.8067,-5.6005 -3.1458,-5.8771 -14.3219,-11.6845 -14.7307,-7.6546 -35.3698,-21.3017 -45.5397,-30.112 -37.094,-32.1353 -43.3493,-69.1732 -17.7781,-105.2646 4.4799,-6.323 21.45,-24.0752 23.0079,-24.0683 0.4164,0 1.5287,3.9789 2.4718,8.838 4.9565,25.536 17.4428,51.1493 35.1059,72.0129 6.9686,8.2313 19.4491,19.7093 20.3985,18.7599 0.2676,-0.2676 -3.4553,-27.7447 -8.2732,-61.0602 -4.8178,-33.3155 -8.4592,-60.8741 -8.0919,-61.2414 0.3673,-0.3673 4.8254,1.5036 9.9068,4.1575 42.79885,22.3524 66.93725,48.7177 74.35945,81.2194 3.5537,15.562 1.8084,37.5646 -4.3478,54.8105 -3.6256,10.1568 -12.666,27.4445 -18.8833,36.1101 -2.964,4.1313 -5.3892,7.7753 -5.3892,8.0977 0,1.7744 8.0548,9.938 14.8798,15.0808 7.6329,5.7515 25.5941,15.4762 37.4982,20.3025 l 5.878,2.3831 3.8693,-4.4871 c 2.1281,-2.4679 3.8705,-5.0828 3.872,-5.8109 10e-4,-0.7281 -5.8593,-9.8077 -13.0239,-20.1769 -7.1646,-10.3692 -13.5125,-20.2473 -14.1065,-21.9513 -1.9656,-5.6386 1.0139,-13.3083 6.261,-16.1164 1.085,-0.5807 12.373,-2.8257 25.0843,-4.989 12.7114,-2.1632 23.2085,-4.0477 23.3268,-4.1878 0.964,-1.1414 4.461,-8.9457 4.461,-9.9558 0,-0.7044 -4.275,-11.0331 -9.5,-22.9528 -10.2131,-23.2988 -11.03,-26.8247 -7.5405,-32.5476 3.8143,-6.2557 5.3608,-6.5221 31.8512,-5.4874 13.8627,0.5415 24.1578,0.5558 24.8189,0.034 0.6213,-0.4899 2.3228,-2.6126 3.7813,-4.7171 l 2.6516,-3.8264 -5.0313,-22.2624 c -2.7672,-12.2443 -5.0312,-24.0347 -5.0312,-26.2008 0,-7.9553 4.9399,-12.839 12.9868,-12.839 2.2475,0 13.0534,2.25 24.0132,5 10.9598,2.75 20.5604,5 21.3348,5 0.7744,0 3.2747,-1.6875 5.5562,-3.75 l 4.1483,-3.75 -0.9726,-24.5 c -0.8843,-22.2765 -0.8181,-24.8116 0.7303,-27.9353 2.4441,-4.9307 6.2918,-7.4076 11.4147,-7.348 3.3159,0.039 9.0408,2.3305 25.2469,10.1071 l 20.9586,10.0572 4.8251,-2.6905 c 2.6538,-1.4797 5.034,-3.5904 5.2892,-4.6904 0.2552,-1.1 2.0099,-11.9858 3.8993,-24.1906 1.8894,-12.2049 3.8741,-23.0049 4.4104,-24 2.5016,-4.6417 6.1849,-6.8094 11.5705,-6.8094 5.2058,0 5.417,0.1248 24.683,14.5818 l 19.4324,14.5818 4.6935,-1.5818 c 2.5814,-0.87 5.1009,-2.0318 5.5989,-2.5818 0.498,-0.55 4.1897,-10.225 8.2037,-21.5 4.014,-11.275 7.9227,-21.7574 8.686,-23.2942 2.7893,-5.6158 10.7853,-8.2601 16.7541,-5.5405 1.4066,0.6409 9.816,9.2473 18.6876,19.1254 l 16.1303,17.9601 5.5933,-0.5773 c 3.0764,-0.3175 5.7192,-0.9364 5.873,-1.3754 0.1539,-0.4389 5.7439,-9.9599 12.4223,-21.1578 12.6261,-21.1704 15.222,-24.1287 21.179,-24.1365 7.1542,-0.01 9.0154,2.0243 22.3172,24.386 6.9065,11.6106 12.7326,21.2983 12.9468,21.5281 0.2142,0.2298 2.7596,0.6143 5.6564,0.8546 l 5.2668,0.4367 16.3082,-18.1583 c 8.9696,-9.9871 17.4282,-18.5842 18.7971,-19.1046 6.0349,-2.2945 13.4638,0.073 16.1269,5.1406 0.6976,1.3272 4.8048,12.3054 9.1272,24.3959 l 7.8589,21.9829 5.5261,1.4393 5.526,1.4394 19.6495,-14.6722 c 17.0318,-12.7176 20.142,-14.6717 23.3468,-14.6684 4.5899,0 9.6144,2.9684 11.6255,6.8575 0.839,1.6224 3.1224,13.2298 5.0743,25.7943 1.9518,12.5644 3.7411,23.3886 3.9761,24.0538 0.2351,0.6651 2.586,2.2942 5.2244,3.6202 l 4.797,2.411 21,-9.9911 c 22.5381,-10.7228 26.5103,-11.7545 31.8319,-8.2676 5.7737,3.7831 6.0346,5.4267 5.2697,33.1986 l -0.6943,25.2076 3.7963,3.5289 c 2.088,1.9408 4.5188,3.541 5.40195,3.5559 0.883,0.015 10.6911,-2.223 21.7957,-4.973 24.4456,-6.0538 27.7924,-6.2332 32.6481,-1.75 5.5377,5.113 5.4967,7.464 -0.6049,34.7202 l -5.3377,23.8439 3.7951,4.6315 3.7952,4.6315 5.6515,-0.5118 c 3.1083,-0.2815 13.6167,-0.7805 23.3519,-1.1089 15.4341,-0.5207 18.1614,-0.3785 21.2999,1.1108 3.9972,1.8969 7.512,7.6026 7.4799,12.143 -0.011,1.5344 -4.4417,12.9577 -9.8464,25.385 l -9.8268,22.5952 2.4684,4.9048 c 1.3576,2.6977 2.5772,5.031 2.7102,5.1852 0.133,0.1542 10.6566,2.0528 23.3859,4.2191 12.7294,2.1663 24.0648,4.4313 25.1899,5.0334 3.3408,1.788 5.9307,7.034 5.9348,12.0214 0,5.2151 -0.6119,6.2985 -17.0383,29.9606 -8.9414,12.88 -10.6813,15.9819 -10.2449,18.2648 0.2892,1.5124 0.8815,2.9698 1.3163,3.2385 1.0347,0.6395 16.7494,-12.1533 29.8458,-24.2966 9.6527,-8.9501 10.6819,-10.2806 14.7769,-19.1036 6.1974,-13.3527 6.1744,-13.0414 1.3721,-18.5899 -11.4879,-13.2733 -22.4842,-34.0029 -26.5597,-50.0691 -1.9544,-7.7046 -2.4645,-12.2429 -2.4645,-21.9272 0,-15.1612 2.0846,-24.0055 8.6577,-36.7322 12.5439,-24.2874 34.8563,-43.5153 72.2251,-62.2408 7.2145,-3.6152 13.117,-6.4574 13.1167,-6.3159 -3e-4,0.1414 -0.8779,2.5656 -1.9503,5.3871 -6.051,15.9202 -8.1312,33.9948 -8.7607,76.12 -0.4501,30.1221 -0.319,35.25 0.9012,35.25 2.1171,0 12.1884,-6.2971 19.302,-12.0687 20.0744,-16.2872 35.9749,-44.5266 43.5399,-77.3269 2.6597,-11.5323 2.4257,-11.605 9.5549,2.967 11.408,23.3178 13.4053,51.8236 5.3852,76.8571 -6.2219,19.4206 -16.6947,35.9488 -34.4717,54.4033 -13.3347,13.843 -26.4054,24.5185 -45,36.754 -12.0731,7.9442 -14.6096,10.0863 -18.4287,15.5632 -8.908,12.7744 -19.8549,25.6616 -33.0779,38.9406 l -13.5322,13.5896 23.7473,17.4104 c 21.2316,15.5661 23.9212,17.8562 25.3892,21.6185 2.101,5.3846 1.2636,11.6192 -2.6759,19.9209 -5.2106,10.9803 -33.2641,52.2692 -86.0092,126.5876 -8.4769,11.9441 -19.0003,27.5974 -23.3853,34.7849 -4.385,7.1876 -8.9975,14.0311 -10.25,15.2078 l -2.2772,2.1394 0.022,-5.4243 z m -310.57185,-136.2402 c 9.4286,-4.4776 17.2277,-12.1079 21.9397,-21.4646 4.988,-9.9049 4.8656,-11.0348 -1.1394,-10.514 -2.6125,0.2266 -20.6427,1.6907 -40.0671,3.2536 -19.4243,1.5629 -35.5634,3.0879 -35.8645,3.389 -1.0344,1.0345 3.8456,9.618 8.2589,14.5266 13.114,14.5859 30.4848,18.5919 46.8724,10.8094 z m -93.2162,-52.616 c 20.8322,-5.328 33.4581,-17.9311 38.2255,-38.1564 2.2301,-9.4608 2.0191,-27.7224 -0.431,-37.3023 -6.0768,-23.7599 -20.5719,-37.6189 -42.5414,-40.6746 -12.9888,-1.8066 -37.7001,2.8822 -39.4622,7.4876 -0.4372,1.1427 -1.6842,2.8784 -2.7712,3.8572 -1.0869,0.9788 -2.7922,3.6788 -3.7894,6 -0.9973,2.3212 -3.274,7.3704 -5.0593,11.2203 -18.7484,40.4297 -6.4974,73.3654 32.3957,87.0931 8.1771,2.8862 13.5778,2.9957 23.4333,0.4751 z m 167.4111,-3.1703 c 12.4995,-3.833 26.5725,-11.802 31.788,-18.0002 12.1944,-14.4922 12.7527,-39.0815 1.5272,-67.2644 -3.7304,-9.3657 -4.9455,-11.3334 -9.6589,-15.6412 -2.9654,-2.7102 -8.7599,-6.5923 -12.8768,-8.627 -6.2111,-3.0697 -8.8362,-3.7775 -15.4231,-4.1588 -4.3659,-0.2528 -9.9631,0.05 -12.4383,0.6736 -6.9726,1.7558 -16.7622,6.801 -23.2056,11.9596 -13.9823,11.1939 -23.1655,42.1729 -18.4264,62.1605 2.7897,11.7663 12.1289,26.1476 22.2742,34.2998 8.3997,6.7495 23.2947,8.629 36.4397,4.5981 z"
     id="path1286"
     sodipodi:nodetypes="csssssscscsssssssssssssssscssssscsssssscscssssssssscscsssssscsscscsssssscsssssscssscssscsssscccscsssscssscssssscccssssscsssscsssssssssssssssssssssscsssssscccssssssssssssssssssssssscssss" /><g
     id="g1300"><path
       style="fill:#020100;stroke-width:1.02257"
       d="m 826.02121,-1356.5715 c -7.7075,-2.1388 -14.95783,-7.3688 -21.45435,-15.4757 -13.25448,-16.5403 -17.16186,-33.9395 -12.24821,-54.5406 2.75393,-11.5462 9.84319,-25.9577 15.34221,-31.1884 2.36499,-2.2497 4.10395,-3.6302 3.86433,-3.0677 -0.23961,0.5624 -1.54778,3.3233 -2.90703,6.1354 -2.07161,4.2858 -2.47608,6.6842 -2.50045,14.8273 -0.0352,11.7476 2.38166,18.1785 9.19053,24.4547 7.48355,6.8981 15.98755,6.8981 23.4711,0 6.7681,-6.2387 9.20185,-12.6969 9.21571,-24.4547 0.0102,-8.5748 -0.32326,-10.3961 -2.8416,-15.5243 -3.44112,-7.0074 -8.38745,-11.5837 -14.26159,-13.1948 l -4.35936,-1.1955 4.02966,-1.4179 c 14.51629,-5.1076 31.59863,-0.7772 44.31735,11.2344 8.18239,7.7276 15.42678,26.1206 17.75735,45.085 3.03024,24.6576 -5.40632,40.8147 -26.80962,51.3436 -15.61399,7.6811 -28.88935,10.0085 -39.80603,6.9792 z"
       id="path1295" /><path
       style="fill:#020100;stroke-width:1.01924"
       d="m 661.30411,-1355.1517 c -10.81846,-3.8163 -19.08675,-8.6915 -26.36752,-15.547 -17.48671,-16.4652 -20.77939,-39.0233 -9.78494,-67.0364 l 3.20023,-8.154 0.69197,8.781 c 0.81508,10.3432 4.16274,18.4625 9.56953,23.2098 14.99959,13.1698 34.12043,-1.045 34.12043,-25.3657 0,-16.2449 -9.21264,-29.5581 -20.454,-29.5581 -4.99367,0 -2.84789,-1.1688 4.89804,-2.668 27.79651,-5.38 49.10636,4.0649 59.85064,26.5269 6.07705,12.7046 7.17028,17.9868 7.08614,34.2381 -0.0617,11.9138 -0.42159,14.8186 -2.68281,21.6527 -5.94317,17.9622 -17.96823,29.2162 -36.03895,33.7282 -11.21742,2.8008 -16.57325,2.8436 -24.08876,0.1925 z"
       id="path1293" /><path
       style="fill:#020100;stroke-width:1.09035"
       d="m 747.99457,-1300.3956 c -7.16626,-2.8938 -14.00229,-7.8733 -20.36327,-14.8332 -4.7245,-5.1695 -8.98173,-13.0039 -7.72132,-14.2093 0.70249,-0.6718 86.20611,-7.2533 86.77973,-6.6797 0.31131,0.3114 -1.19398,4.2722 -3.3451,8.8018 -5.06871,10.6732 -12.77034,18.7984 -22.87169,24.129 -7.13644,3.7662 -8.73041,4.1703 -17.65778,4.4767 -7.61542,0.2614 -10.93468,-0.116 -14.82057,-1.6853 z"
       id="path1282" /></g></g></svg>
