<?xml version="1.0" encoding="UTF-8" standalone="no"?>
<svg
   xmlns:dc="http://purl.org/dc/elements/1.1/"
   xmlns:cc="http://creativecommons.org/ns#"
   xmlns:rdf="http://www.w3.org/1999/02/22-rdf-syntax-ns#"
   xmlns:svg="http://www.w3.org/2000/svg"
   xmlns="http://www.w3.org/2000/svg"
   xmlns:sodipodi="http://sodipodi.sourceforge.net/DTD/sodipodi-0.dtd"
   xmlns:inkscape="http://www.inkscape.org/namespaces/inkscape"
   version="1.1"
   id="Layer_1"
   x="0px"
   y="0px"
   width="1297.3899"
   height="730.15265"
   viewBox="0 0 1297.3899 730.15265"
   enable-background="new 0 0 1434.979 947"
   xml:space="preserve"
   sodipodi:docname="ferris_rust.svg"
   inkscape:version="1.0.1 (3bc2e813f5, 2020-09-07)"><metadata
   id="metadata51"><rdf:RDF><cc:Work
       rdf:about=""><dc:format>image/svg+xml</dc:format><dc:type
         rdf:resource="http://purl.org/dc/dcmitype/StillImage" /><dc:title></dc:title></cc:Work></rdf:RDF></metadata><defs
   id="defs49" /><sodipodi:namedview
   pagecolor="#ffffff"
   bordercolor="#666666"
   borderopacity="1"
   objecttolerance="10"
   gridtolerance="10"
   guidetolerance="10"
   inkscape:pageopacity="0"
   inkscape:pageshadow="2"
   inkscape:window-width="3840"
   inkscape:window-height="2096"
   id="namedview47"
   showgrid="false"
   inkscape:zoom="0.45924018"
   inkscape:cx="967.69358"
   inkscape:cy="1386.9297"
   inkscape:window-x="0"
   inkscape:window-y="27"
   inkscape:window-maximized="1"
   inkscape:current-layer="Layer_1"
   inkscape:document-rotation="0"
   fit-margin-top="5"
   fit-margin-left="5"
   fit-margin-right="5"
   fit-margin-bottom="5"
   lock-margins="true" />
<!--<rect fill="#FFFFFF" width="1434.979" height="947"/>-->


















<g
   id="g867"
   transform="translate(-0.05040575,-0.04519341)"><g
     id="g901"><path
       style="fill:#a42a00"
       d="m 1031.1983,665.34964 c 0.9285,-5.708 7.0147,-24.3923 10.8686,-33.3661 1.8032,-4.1986 6.9045,-15.0589 11.3363,-24.1339 11.7364,-24.0326 28.21,-64.5935 28.21,-69.4579 0,-0.6953 -5.0123,2.0465 -11.1384,6.093 -41.4213,27.3602 -115.42733,52.0882 -190.86163,63.7737 -121.4349,18.8113 -276.4742,12.2803 -391.23719,-16.481 -39.82961,-9.9819 -81.37979,-24.7961 -102.51278,-36.5496 -4.07088,-2.2641 -6.25,-3.0174 -6.25,-2.1606 0,2.1784 21.20962,44.4797 28.2197,56.2824 11.96112,20.1387 22.34022,43.1541 24.35205,54 0.69467,3.745 0.62939,3.9067 -1.02412,2.5369 -0.97135,-0.8047 -5.42944,-6.485 -9.90686,-12.6228 -4.47742,-6.1378 -19.71159,-25.2794 -33.8537,-42.5369 -40.90545,-49.9165 -52.9813,-65.9321 -54.32461,-72.0481 -0.75004,-3.415 -0.11917,-4.0481 8.84834,-8.8801 l 5.81081,-3.1311 17.68919,6.9981 c 85.5072,33.8279 184.26284,57.0825 278.68917,65.6248 53.7118,4.859 112.0768,4.8616 163.5,0.01 81.9656,-7.7375 165.2705,-29.5801 235.37613,-61.7156 17.1177,-7.8466 31.6986,-13.4094 44.5639,-11.4526 12.247,1.8628 29.06,10.8012 29.06,13.5768 0,2.7417 -25.3948,41.1566 -57.956,87.6705 -5.8792,8.3984 -13.7181,20.153 -17.4197,26.1213 -3.7017,5.9683 -7.6212,11.9765 -8.7101,13.3515 l -1.9799,2.5 0.6508,-4 z"
       id="path1284"
       sodipodi:nodetypes="cssssssssssssssscsscssssssccc" /><g
       id="g889"><g
         id="g879"><ellipse
           style="fill:#ffffff;fill-opacity:1"
           id="path846"
           cx="635.09308"
           cy="450.14706"
           rx="31.45845"
           ry="40.322365" /><ellipse
           style="fill:#ffffff;fill-opacity:1"
           id="path846-3"
           cx="806.104"
           cy="447.3255"
           rx="31.45845"
           ry="40.322365" /></g><path
         style="fill:#f54b00"
         d="m 1067.6348,719.77704 c 0.053,-13.3909 8.0751,-38.8523 20.4081,-64.7766 23.0183,-48.3854 40.9278,-103.288 36.1925,-110.95 -1.3631,-2.2056 -14.2004,-9.1734 -21.4331,-11.6334 -8.6615,-2.946 -21.4159,-4.9538 -27.3755,-4.3095 -9.3586,1.0117 -22.0729,4.7266 -32.4374,9.4776 -70.10569,32.1355 -153.41069,53.9781 -235.37619,61.7156 -51.4233,4.8544 -109.7883,4.8518 -163.5,-0.01 -94.4264,-8.5426 -193.182,-31.7972 -278.6892,-65.6251 l -17.6892,-6.9981 -5.8108,3.1101 c -10.327,5.5272 -21.3108,15.3215 -21.3108,19.0029 0,10.676 25.1386,58.4638 47.9066,91.0691 24.4195,34.9703 32.7262,48.9454 40.0401,67.3633 3.4224,8.6184 4.9945,16.6367 3.2618,16.6367 -0.5849,0 -5.9335,-5.2549 -11.886,-11.6777 -5.9524,-6.4228 -39.2307,-40.0603 -73.9517,-74.75 -34.7211,-34.6897 -65.6389,-66.2478 -68.7064,-70.1289 -7.3378,-9.2843 -10.6421,-16.4668 -10.6546,-23.1602 -0.011,-5.9156 -0.4961,-5.2911 25.3848,-32.681 7.092,-7.5055 12.717,-13.7758 12.5,-13.934 -0.217,-0.1583 -3.7696,-2.2444 -7.8946,-4.6359 -29.2899,-16.981 -52.81535,-38.3206 -61.62525,-55.8995 -2.8067,-5.6005 -3.1458,-5.8771 -14.3219,-11.6845 -14.7307,-7.6546 -35.3698,-21.3017 -45.5397,-30.112 -37.094,-32.1353 -43.3493,-69.1732 -17.7781,-105.2646 4.4799,-6.323 21.45,-24.0752 23.0079,-24.0683 0.4164,0 1.5287,3.9789 2.4718,8.838 4.9565,25.536 17.4428,51.1493 35.1059,72.0129 6.9686,8.2313 19.4491,19.7093 20.3985,18.7599 0.2676,-0.2676 -3.4553,-27.7447 -8.2732,-61.0602 -4.8178,-33.3155 -8.4592,-60.8741 -8.0919,-61.2414 0.3673,-0.3673 4.8254,1.5036 9.9068,4.1575 42.79885,22.3524 66.93725,48.7177 74.35945,81.2194 3.5537,15.562 1.8084,37.5646 -4.3478,54.8105 -3.6256,10.1568 -12.666,27.4445 -18.8833,36.1101 -2.964,4.1313 -5.3892,7.7753 -5.3892,8.0977 0,1.7744 8.0548,9.938 14.8798,15.0808 7.6329,5.7515 25.5941,15.4762 37.4982,20.3025 l 5.878,2.3831 3.8693,-4.4871 c 2.1281,-2.4679 3.8705,-5.0828 3.872,-5.8109 0.001,-0.7281 -5.8593,-9.8077 -13.0239,-20.1769 -7.1646,-10.3692 -13.5125,-20.2473 -14.1065,-21.9513 -1.9656,-5.6386 1.0139,-13.3083 6.261,-16.1164 1.085,-0.5807 12.373,-2.8257 25.0843,-4.989 12.7114,-2.1632 23.2085,-4.0477 23.3268,-4.1878 0.964,-1.1414 4.461,-8.9457 4.461,-9.9558 0,-0.7044 -4.275,-11.0331 -9.5,-22.9528 -10.2131,-23.2988 -11.03,-26.8247 -7.5405,-32.5476 3.8143,-6.2557 5.3608,-6.5221 31.8512,-5.4874 13.8627,0.5415 24.1578,0.5558 24.8189,0.034 0.6213,-0.4899 2.3228,-2.6126 3.7813,-4.7171 l 2.6516,-3.8264 -5.0313,-22.2624 c -2.7672,-12.2443 -5.0312,-24.0347 -5.0312,-26.2008 0,-7.9553 4.9399,-12.839 12.9868,-12.839 2.2475,0 13.0534,2.25 24.0132,5 10.9598,2.75 20.5604,5 21.3348,5 0.7744,0 3.2747,-1.6875 5.5562,-3.75 l 4.1483,-3.75 -0.9726,-24.5 c -0.8843,-22.2765 -0.8181,-24.8116 0.7303,-27.9353 2.4441,-4.9307 6.2918,-7.4076 11.4147,-7.348 3.3159,0.039 9.0408,2.3305 25.2469,10.1071 l 20.9586,10.0572 4.8251,-2.6905 c 2.6538,-1.4797 5.034,-3.5904 5.2892,-4.6904 0.2552,-1.1 2.0099,-11.9858 3.8993,-24.1906 1.8894,-12.2049 3.8741,-23.0049 4.4104,-24 2.5016,-4.6417 6.1849,-6.8094 11.5705,-6.8094 5.2058,0 5.417,0.1248 24.683,14.5818 l 19.4324,14.5818 4.6935,-1.5818 c 2.5814,-0.87 5.1009,-2.0318 5.5989,-2.5818 0.498,-0.55 4.1897,-10.225 8.2037,-21.5 4.014,-11.275 7.9227,-21.7574 8.686,-23.2942 2.7893,-5.6158 10.7853,-8.2601 16.7541,-5.5405 1.4066,0.6409 9.816,9.2473 18.6876,19.1254 l 16.1303,17.9601 5.5933,-0.5773 c 3.0764,-0.3175 5.7192,-0.9364 5.873,-1.3754 0.1539,-0.4389 5.7439,-9.9599 12.4223,-21.1578 12.6261,-21.1704 15.222,-24.1287 21.179,-24.1365 7.1542,-0.01 9.0154,2.0243 22.3172,24.386 6.9065,11.6106 12.7326,21.2983 12.9468,21.5281 0.2142,0.2298 2.7596,0.6143 5.6564,0.8546 l 5.2668,0.4367 16.3082,-18.1583 c 8.9696,-9.9871 17.4282,-18.5842 18.7971,-19.1046 6.0349,-2.2945 13.4638,0.073 16.1269,5.1406 0.6976,1.3272 4.8048,12.3054 9.1272,24.3959 l 7.8589,21.9829 5.5261,1.4393 5.526,1.4394 19.6495,-14.6722 c 17.0318,-12.7176 20.142,-14.6717 23.3468,-14.6684 4.5899,0 9.6144,2.9684 11.6255,6.8575 0.839,1.6224 3.1224,13.2298 5.0743,25.7943 1.9518,12.5644 3.7411,23.3886 3.9761,24.0538 0.2351,0.6651 2.586,2.2942 5.2244,3.6202 l 4.797,2.411 21,-9.9911 c 22.5381,-10.7228 26.5103,-11.7545 31.8319,-8.2676 5.7737,3.7831 6.0346,5.4267 5.2697,33.1986 l -0.6943,25.2076 3.7963,3.5289 c 2.088,1.9408 4.5188,3.541 5.40195,3.5559 0.883,0.015 10.6911,-2.223 21.79574,-4.973 24.4456,-6.0538 27.7924,-6.2332 32.6481,-1.75 5.5377,5.113 5.4967,7.464 -0.6049,34.7202 l -5.3377,23.8439 3.7951,4.6315 3.7952,4.6315 5.6515,-0.5118 c 3.1083,-0.2815 13.6167,-0.7805 23.3519,-1.1089 15.4341,-0.5207 18.1614,-0.3785 21.2999,1.1108 3.9972,1.8969 7.512,7.6026 7.4799,12.143 -0.011,1.5344 -4.4417,12.9577 -9.8464,25.385 l -9.8268,22.5952 2.4684,4.9048 c 1.3576,2.6977 2.5772,5.031 2.7102,5.1852 0.133,0.1542 10.6566,2.0528 23.3859,4.2191 12.7294,2.1663 24.0648,4.4313 25.1899,5.0334 3.3408,1.788 5.9307,7.034 5.9348,12.0214 0,5.2151 -0.6119,6.2985 -17.0383,29.9606 -8.9414,12.88 -10.6813,15.9819 -10.2449,18.2648 0.2892,1.5124 0.8815,2.9698 1.3163,3.2385 1.0347,0.6395 16.7494,-12.1533 29.8458,-24.2966 9.6527,-8.9501 10.6819,-10.2806 14.7769,-19.1036 6.1974,-13.3527 6.1744,-13.0414 1.3721,-18.5899 -11.4879,-13.2733 -22.4842,-34.0029 -26.5597,-50.0691 -1.9544,-7.7046 -2.4645,-12.2429 -2.4645,-21.9272 0,-15.1612 2.0846,-24.0055 8.6577,-36.7322 12.5439,-24.2874 34.8563,-43.5153 72.2251,-62.2408 7.2145,-3.6152 13.117,-6.4574 13.1167,-6.3159 -3e-4,0.1414 -0.8779,2.5656 -1.9503,5.3871 -6.051,15.9202 -8.1312,33.9948 -8.7607,76.12 -0.4501,30.1221 -0.319,35.25 0.9012,35.25 2.1171,0 12.1884,-6.2971 19.302,-12.0687 20.0744,-16.2872 35.9749,-44.5266 43.5399,-77.3269 2.6597,-11.5323 2.4257,-11.605 9.5549,2.967 11.408,23.3178 13.4053,51.8236 5.3852,76.8571 -6.2219,19.4206 -16.6947,35.9488 -34.4717,54.4033 -13.3347,13.843 -26.4054,24.5185 -45,36.754 -12.0731,7.9442 -14.6096,10.0863 -18.4287,15.5632 -8.908,12.7744 -19.8549,25.6616 -33.0779,38.9406 l -13.5322,13.5896 23.7473,17.4104 c 21.2316,15.5661 23.9212,17.8562 25.3892,21.6185 2.101,5.3846 1.2636,11.6192 -2.6759,19.9209 -5.2106,10.9803 -33.2641,52.2692 -86.0092,126.5876 -8.4769,11.9441 -19.0003,27.5974 -23.3853,34.7849 -4.385,7.1876 -8.9975,14.0311 -10.25,15.2078 l -2.2772,2.1394 0.022,-5.4243 z M 757.06291,583.53684 c 9.4286,-4.4776 17.2277,-12.1079 21.9397,-21.4646 4.988,-9.9049 4.8656,-11.0348 -1.1394,-10.514 -2.6125,0.2266 -20.6427,1.6907 -40.0671,3.2536 -19.4243,1.5629 -35.5634,3.0879 -35.8645,3.389 -1.0344,1.0345 3.8456,9.618 8.2589,14.5266 13.114,14.5859 30.4848,18.5919 46.8724,10.8094 z m -93.2162,-52.616 c 20.8322,-5.328 33.4581,-17.9311 38.2255,-38.1564 2.2301,-9.4608 2.0191,-27.7224 -0.431,-37.3023 -6.0768,-23.7599 -20.5719,-37.6189 -42.5414,-40.6746 -12.9888,-1.8066 -37.7001,2.8822 -39.4622,7.4876 -0.4372,1.1427 -1.6842,2.8784 -2.7712,3.8572 -1.0869,0.9788 -2.7922,3.6788 -3.7894,6 -0.9973,2.3212 -3.274,7.3704 -5.0593,11.2203 -18.7484,40.4297 -6.4974,73.3654 32.3957,87.0931 8.1771,2.8862 13.5778,2.9957 23.4333,0.4751 z m 167.4111,-3.1703 c 12.4995,-3.833 26.5725,-11.802 31.788,-18.0002 12.1944,-14.4922 12.7527,-39.0815 1.5272,-67.2644 -3.7304,-9.3657 -4.9455,-11.3334 -9.6589,-15.6412 -2.9654,-2.7102 -8.7599,-6.5923 -12.8768,-8.627 -6.2111,-3.0697 -8.8362,-3.7775 -15.4231,-4.1588 -4.3659,-0.2528 -9.9631,0.05 -12.4383,0.6736 -6.9726,1.7558 -16.7622,6.801 -23.2056,11.9596 -13.9823,11.1939 -23.1655,42.1729 -18.4264,62.1605 2.7897,11.7663 12.1289,26.1476 22.2742,34.2998 8.3997,6.7495 23.2947,8.629 36.4397,4.5981 z"
         id="path1286"
         sodipodi:nodetypes="csssssscscsssssssssssssssscssssscsssssscscssssssssscscsssssscsscscsssssscsssssscssscssscsssscccscsssscssscssssscccssssscsssscsssssssssssssssssssssscsssssscccssssssssssssssssssssssscssss" /><g
         id="g875"><path
           style="fill:#020100;stroke-width:1.02257"
           d="m 806.26917,529.9639 c -7.7075,-2.1388 -14.95783,-7.3688 -21.45435,-15.4757 -13.25448,-16.5403 -17.16186,-33.9395 -12.24821,-54.5406 2.75393,-11.5462 9.84319,-25.9577 15.34221,-31.1884 2.36499,-2.2497 4.10395,-3.6302 3.86433,-3.0677 -0.23961,0.5624 -1.54778,3.3233 -2.90703,6.1354 -2.07161,4.2858 -2.47608,6.6842 -2.50045,14.8273 -0.0352,11.7476 2.38166,18.1785 9.19053,24.4547 7.48355,6.8981 15.98755,6.8981 23.4711,0 6.7681,-6.2387 9.20185,-12.6969 9.21571,-24.4547 0.0102,-8.5748 -0.32326,-10.3961 -2.8416,-15.5243 -3.44112,-7.0074 -8.38745,-11.5837 -14.26159,-13.1948 l -4.35936,-1.1955 4.02966,-1.4179 c 14.51629,-5.1076 31.59863,-0.7772 44.31735,11.2344 8.18239,7.7276 15.42678,26.1206 17.75735,45.085 3.03024,24.6576 -5.40632,40.8147 -26.80962,51.3436 -15.61399,7.6811 -28.88935,10.0085 -39.80603,6.9792 z"
           id="path1295" /><path
           style="fill:#020100;stroke-width:1.01924"
           d="m 641.55207,531.3837 c -10.81846,-3.8163 -19.08675,-8.6915 -26.36752,-15.547 -17.48671,-16.4652 -20.77939,-39.0233 -9.78494,-67.0364 l 3.20023,-8.154 0.69197,8.781 c 0.81508,10.3432 4.16274,18.4625 9.56953,23.2098 14.99959,13.1698 34.12043,-1.045 34.12043,-25.3657 0,-16.2449 -9.21264,-29.5581 -20.454,-29.5581 -4.99367,0 -2.84789,-1.1688 4.89804,-2.668 27.79651,-5.38 49.10636,4.0649 59.85064,26.5269 6.07705,12.7046 7.17028,17.9868 7.08614,34.2381 -0.0617,11.9138 -0.42159,14.8186 -2.68281,21.6527 -5.94317,17.9622 -17.96823,29.2162 -36.03895,33.7282 -11.21742,2.8008 -16.57325,2.8436 -24.08876,0.1925 z"
           id="path1293" /><path
           style="fill:#020100;stroke-width:1.09035"
           d="m 728.24253,586.1398 c -7.16626,-2.8938 -14.00229,-7.8733 -20.36327,-14.8332 -4.7245,-5.1695 -8.98173,-13.0039 -7.72132,-14.2093 0.70249,-0.6718 86.20611,-7.2533 86.77973,-6.6797 0.31131,0.3114 -1.19398,4.2722 -3.3451,8.8018 -5.06871,10.6732 -12.77034,18.7984 -22.87169,24.129 -7.13644,3.7662 -8.73041,4.1703 -17.65778,4.4767 -7.61542,0.2614 -10.93468,-0.116 -14.82057,-1.6853 z"
           id="path1282" /></g></g></g><path
     id="path3"
     d="m 319.53495,127.11242 -14.99906,-5.19057 c -0.39914,-1.25764 -0.8127,-2.50883 -1.23683,-3.75138 l 8.94233,-13.09746 c 0.90952,-1.33143 1.06788,-3.03546 0.41067,-4.50263 -0.64958,-1.475169 -2.01694,-2.502528 -3.61153,-2.72013 l -15.68017,-2.157053 c -0.64417,-1.171059 -1.3043,-2.329059 -1.97207,-3.479047 L 297.5937,77.6543 c 0.63363,-1.480314 0.44987,-3.179865 -0.47614,-4.498436 -0.92466,-1.312603 -2.46724,-2.055022 -4.0737,-1.961472 l -15.81013,0.947727 c -0.85334,-1.023282 -1.72662,-2.023212 -2.60387,-3.01278 l 3.24686,-15.509651 c 0.33422,-1.579866 -0.17516,-3.215632 -1.34249,-4.319412 -1.16573,-1.110461 -2.81478,-1.542479 -4.37749,-1.128207 l -15.35883,4.019414 c -1.02508,-0.820978 -2.06311,-1.629602 -3.11209,-2.416876 l 0.16716,-15.878168 c 0.0149,-1.612067 -0.7975,-3.113483 -2.16213,-3.974612 -1.35498,-0.860145 -3.06419,-0.957543 -4.51459,-0.253726 l -14.27661,6.942978 c -1.1628,-0.607433 -2.33855,-1.202512 -3.52226,-1.77691 l -2.93767,-15.602032 c -0.29231,-1.580676 -1.39129,-2.898153 -2.89315,-3.473435 -1.50618,-0.580612 -3.1929,-0.339937 -4.47608,0.631641 l -12.62412,9.574655 c -1.2758,-0.367964 -2.55327,-0.729263 -3.83799,-1.066901 l -5.91668,-14.69623 c -0.5993,-1.4896148 -1.93115,-2.5690272 -3.51622,-2.8422849 -1.58271,-0.27693 -3.199,0.2910341 -4.2664,1.494279 L 178.39693,20.695608 c -1.32281,-0.115003 -2.64827,-0.213665 -3.98164,-0.291686 l -8.6611,-13.2513338 c -0.87979,-1.3510211 -2.39352,-2.1471371 -4.00543,-2.1058649 -1.60826,0.043606 -3.07825,0.9123666 -3.89066,2.297536 l -8.00809,13.6964667 c -1.30521,0.145455 -2.61669,0.304932 -3.91978,0.487693 L 134.81901,10.190964 c -1.12382,-1.1482021 -2.7657,-1.6322001 -4.33587,-1.2792134 -1.57018,0.352988 -2.84695,1.4931154 -3.36823,3.0111514 l -5.1899,15.002068 c -1.25894,0.393202 -2.5125,0.810366 -3.75434,1.237504 l -13.1025,-8.950659 c -1.32711,-0.904188 -3.03045,-1.059562 -4.49963,-0.411338 -1.473845,0.655577 -2.501846,2.019943 -2.718798,3.617519 l -2.156386,15.683183 c -1.17171,0.641177 -2.326717,1.300615 -3.476727,1.968381 L 77.650811,33.865518 c -1.480345,-0.63364 -3.184209,-0.455212 -4.498458,0.476124 -1.31259,0.924671 -2.057332,2.470918 -1.961443,4.073704 l 0.94238,15.814477 c -1.016597,0.854992 -2.017191,1.725268 -3.012067,2.606843 L 53.613898,53.586167 c -1.576202,-0.33192 -3.211967,0.177472 -4.315755,1.344824 -1.111127,1.162698 -1.540448,2.823749 -1.128209,4.377464 l 4.019417,15.358847 C 51.368372,75.69237 50.56042,76.7334 49.766479,77.780719 L 33.891992,77.61593 c -1.611408,-0.01235 -3.115149,0.804188 -3.97462,2.162155 -0.864776,1.362316 -0.956865,3.067177 -0.253044,4.517562 l 6.940647,14.280286 c -0.604435,1.162145 -1.197192,2.334217 -1.772268,3.514917 l -15.601349,2.94066 c -1.571298,0.306 -2.895156,1.39062 -3.473435,2.89315 -0.582634,1.49719 -0.339937,3.19291 0.632315,4.47907 l 9.575327,12.62714 c -0.369303,1.26978 -0.730618,2.54726 -1.0669,3.83798 l -14.694574,5.90994 c -1.4926182,0.6 -2.5660302,1.93051 -2.8422849,3.51623 -0.2726123,1.58805 0.2946948,3.20136 1.4949424,4.2694 L 20.69648,153.06761 c -0.114335,1.32581 -0.215329,2.65491 -0.293321,3.98831 l -13.2513405,8.66107 c -1.3450383,0.87846 -2.1411639,2.39219 -2.0998821,4.0041 0.040611,1.60893 0.9093791,3.0789 2.2982091,3.89366 l 13.6904835,8.00943 c 0.145465,1.30521 0.307922,2.61601 0.48769,3.91978 l -11.334464,11.11055 c -1.1482099,1.12382 -1.6328811,2.7627 -1.2792212,4.33587 0.3536643,1.57318 1.4931142,2.84693 3.0111562,3.36823 l 14.999076,5.19057 c 0.396207,1.25828 0.8097,2.5095 1.236834,3.75135 l -8.944673,13.10114 c -0.907176,1.32779 -1.062557,3.03114 -0.411339,4.49964 0.652569,1.47451 2.019269,2.49885 3.611534,2.72012 l 15.683191,2.1564 c 0.641158,1.17173 1.30128,2.32973 1.972039,3.47905 l -6.204718,14.56281 c -0.629971,1.48269 -0.45223,3.18354 0.475464,4.49548 0.929012,1.31791 2.471581,2.06033 4.076698,1.96077 l 15.80713,-0.94703 c 0.856333,1.02261 1.723618,2.02386 2.608193,3.01809 l -3.251172,15.50432 c -0.331922,1.57618 0.176793,3.20895 1.345497,4.31875 1.169365,1.11278 2.830421,1.54208 4.377462,1.12819 l 15.352183,-4.02106 c 1.032398,0.82564 2.066088,1.62893 3.11341,2.42289 l -0.160434,15.87981 c -0.01605,1.60907 0.795489,3.1045 2.16012,3.96562 1.356992,0.86912 3.066495,0.95386 4.516901,0.2501 l 14.277288,-6.94 c 1.167127,0.61274 2.340876,1.19884 3.520896,1.77091 l 2.94134,15.60436 c 0.29231,1.58068 1.39064,2.89515 2.89382,3.47643 1.49653,0.57964 3.19224,0.33693 4.47474,-0.63763 l 12.6248,-9.57167 c 1.27414,0.37466 2.55024,0.72994 3.83795,1.06691 l 5.91463,14.68723 c 0.60065,1.49563 1.93252,2.57502 3.51688,2.84529 1.58273,0.27693 3.20203,-0.29171 4.27009,-1.49196 l 10.50181,-11.84572 c 1.32581,0.11434 2.65562,0.2183 3.989,0.29635 l 8.65974,13.24534 c 0.87844,1.34502 2.39352,2.14714 4.00408,2.09989 1.61028,-0.0346 3.07958,-0.90638 3.89067,-2.29755 l 8.01245,-13.69115 c 1.30652,-0.13945 2.61665,-0.30491 3.92477,-0.47937 l 11.11055,11.33446 c 1.11948,1.14288 2.76268,1.63289 4.33288,1.2799 1.57018,-0.35298 2.84625,-1.49613 3.37122,-3.01184 l 5.19057,-14.99906 c 1.25692,-0.40219 2.50883,-0.81268 3.74935,-1.24583 l 13.09812,8.94534 c 1.32844,0.91019 3.03249,1.06855 4.49966,0.41134 1.47516,-0.64958 2.50184,-2.01997 2.72011,-3.61152 l 2.15776,-15.6772 c 1.1717,-0.64115 2.32904,-1.30429 3.47836,-1.97505 l 14.56418,6.21071 c 1.47898,0.62765 3.18285,0.44922 4.49477,-0.47844 1.31627,-0.92236 2.05735,-2.47091 1.96077,-4.0767 l -0.94036,-15.80549 c 1.01662,-0.855 2.01584,-1.73126 3.01211,-2.60686 l 15.50664,3.24752 c 1.5762,0.33191 3.20963,-0.1738 4.31709,-1.33884 1.1098,-1.16869 1.53746,-2.82307 1.12753,-4.38047 l -4.02009,-15.36183 c 0.82099,-1.02506 1.63164,-2.05412 2.42122,-3.10675 l 15.87384,0.1618 c 1.61206,0.0149 3.11782,-0.79223 3.97229,-2.1585 0.86478,-1.36231 0.9582,-3.06117 0.25508,-4.50857 l -6.94136,-14.28328 c 0.60676,-1.1658 1.20019,-2.33488 1.77092,-3.52092 l 15.60203,-2.93766 c 1.57534,-0.28804 2.89583,-1.38762 3.47343,-2.89314 0.58129,-1.5032 0.34226,-3.19659 -0.63531,-4.47841 l -9.57098,-12.6218 c 0.37096,-1.27648 0.72926,-2.55324 1.06255,-3.84329 l 14.69459,-5.90998 c 1.49628,-0.59765 2.56968,-1.92817 2.84229,-3.51621 0.27393,-1.58207 -0.28737,-3.19669 -1.49428,-4.26643 l -11.84041,-10.50615 c 0.11143,-1.32514 0.21231,-2.65425 0.2934,-3.98831 l 13.24834,-8.66043 c 1.34734,-0.88211 2.14712,-2.3935 2.09985,-4.00409 -0.0346,-1.61025 -0.90636,-3.07956 -2.29753,-3.89064 l -13.68815,-8.01312 c -0.14844,-1.30452 -0.31092,-2.61532 -0.4877,-3.91977 l 11.33447,-11.11054 c 1.14887,-1.12085 1.63287,-2.7627 1.27988,-4.33289 -0.35298,-1.57017 -1.49012,-2.84761 -3.00882,-3.37187 z m -63.57011,129.03777 c -5.27205,0.0456 -9.58354,-4.19188 -9.63853,-9.47755 -0.0567,-5.279 4.17583,-9.59882 9.44487,-9.64377 5.27002,-0.0546 9.58953,4.19051 9.6425,9.4672 0.053,5.27669 -4.18182,9.60017 -9.44884,9.65412 z m -11.27627,-29.25325 c -4.80863,0.0485 -8.66529,3.98161 -8.61478,8.79925 l 0.22951,22.86565 c -12.9534,9.79034 -28.15505,17.02942 -45.02554,20.82201 -17.25703,3.87952 -34.48233,3.74138 -50.69989,0.21611 l -9.57571,-20.76455 c -2.01488,-4.36973 -7.18514,-6.27985 -11.5482,-4.26332 l -18.32909,8.46471 c -4.402105,-2.87608 -8.609375,-6.04782 -12.596127,-9.49889 l 93.707577,-21.06614 c 1.06076,-0.23846 1.72484,-0.58924 1.50792,-1.55412 L 176.29243,197.77 c -0.21693,-0.96489 -0.96724,-0.99768 -2.028,-0.75921 l -27.40629,6.16112 -4.72357,-21.01169 29.64169,-6.66367 c 2.70586,-0.60829 14.64107,-2.47923 21.78138,11.70895 2.21706,4.3589 8.18409,18.81717 11.03458,23.23514 2.97586,5.00365 12.57469,14.17849 20.21883,12.46002 l 46.69499,-10.49736 c 0.53039,-0.11924 1.08326,-0.30655 1.65532,-0.54841 -2.24968,5.1301 -4.86719,10.09422 -7.81872,14.84696 z m -122.90601,58.9399 c -4.7843,2.21512 -10.45537,0.12169 -12.66951,-4.6723 -2.21017,-4.80434 -0.1264,-10.47639 4.65791,-12.6915 4.78635,-2.20613 10.46042,-0.11337 12.67154,4.68131 2.20749,4.79233 0.12275,10.47404 -4.65994,12.68249 z M 53.829154,149.68002 c 3.143879,4.2387 2.262464,10.23226 -1.970864,13.37179 -4.232034,3.14552 -10.211318,2.25766 -13.355842,-1.98391 -3.144553,-4.24169 -2.261115,-10.22626 1.970879,-13.37177 4.235695,-3.14323 10.211263,-2.25785 13.355827,1.98389 z m -5.103068,28.35514 18.057707,-13.42472 c 3.857272,-2.86611 4.664005,-8.32348 1.795877,-12.18974 l -6.232627,-8.41424 16.250193,-3.65316 16.466509,73.24726 -32.785071,7.37031 c -5.090979,-9.35715 -8.988105,-19.56506 -11.439488,-30.46944 -0.935691,-4.1622 -1.635856,-8.32694 -2.1131,-12.46627 z m 86.438904,-26.90538 -4.85359,-21.59003 38.69723,-8.69941 c 1.99869,-0.44932 14.63304,-0.86252 16.66946,8.196 1.69084,7.5213 -6.99514,12.30714 -14.63629,14.02493 l -35.87748,8.06551 z m 145.00187,-12.18286 c 0.644,2.86469 1.17642,5.72297 1.59918,8.58387 l -11.76439,2.64473 c -1.17764,0.26474 -1.47729,1.1443 -1.21794,2.29796 l 1.21458,5.40274 c 2.85893,12.7173 -3.69,17.09512 -9.81542,19.21193 -5.83252,2.01949 -13.18157,0.3316 -14.82281,-3.14627 -7.99347,-19.06147 -14.82887,-21.9792 -25.76518,-27.21745 9.88196,-9.91202 19.44927,-23.40813 16.19962,-37.86338 -3.509,-15.608934 -16.41983,-23.034989 -24.7973,-26.21677 -11.74952,-4.444709 -23.38323,-3.2491 -26.43969,-2.561986 L 62.889287,107.43419 C 75.248659,85.311405 94.676423,67.240774 118.90011,56.808739 l 17.72376,11.821546 c 4.0055,2.666183 9.40357,1.584866 12.06611,-2.422936 l 12.59603,-18.955603 c 35.03133,-1.299181 68.2038,13.232015 91.06531,38.259593 l -5.40751,27.280871 c -0.9315,4.72045 2.13327,9.30746 6.8431,10.24763 l 23.2614,4.63955 c 1.20965,3.67249 2.25427,7.42297 3.11855,11.26753 z M 130.37036,40.785145 c 2.91544,-4.395203 8.84129,-5.579425 13.23483,-2.657341 4.38959,2.932414 5.58114,8.862904 2.65605,13.257141 -2.91541,4.395188 -8.84058,5.582404 -13.23547,2.654327 -4.38523,-2.927105 -5.57679,-8.857592 -2.65541,-13.254127 z M 259.1065,104.00755 c 1.02427,-5.175751 6.04832,-8.537087 11.21939,-7.505445 5.17043,1.028642 8.53148,6.065305 7.50419,11.241735 -1.02364,5.17873 -6.04765,8.54007 -11.22176,7.50911 -5.16441,-1.03 -8.52478,-6.06367 -7.50182,-11.2454 z"
     style="stroke-width:3.07132" /></g><path
   style="fill:#f54b00"
   d="m 209.85269,304.40542 c -4.8178,-33.3155 -8.4592,-60.8741 -8.0919,-61.2414 0.3673,-0.3673 4.8254,1.5036 9.9068,4.1575 42.7988,22.3524 66.9372,48.7177 74.3594,81.2194 -12.6718,95.27305 -67.2055,38.00464 -76.1743,-24.1355 z"
   id="path1410"
   sodipodi:nodetypes="csccc" /></svg>
