<?xml version="1.0" encoding="UTF-8" standalone="no"?>
<svg
   xmlns:dc="http://purl.org/dc/elements/1.1/"
   xmlns:cc="http://creativecommons.org/ns#"
   xmlns:rdf="http://www.w3.org/1999/02/22-rdf-syntax-ns#"
   xmlns:svg="http://www.w3.org/2000/svg"
   xmlns="http://www.w3.org/2000/svg"
   xmlns:sodipodi="http://sodipodi.sourceforge.net/DTD/sodipodi-0.dtd"
   xmlns:inkscape="http://www.inkscape.org/namespaces/inkscape"
   xml:space="preserve"
   viewBox="19 19 264.44931 264.45383"
   height="95.053688mm"
   width="95.052063mm"
   y="0px"
   x="0px"
   id="Layer_1"
   version="1.1"
   sodipodi:docname="rust-logo.svg"
   inkscape:version="1.0.1 (3bc2e813f5, 2020-09-07)"><metadata
     id="metadata8"><rdf:RDF><cc:Work
         rdf:about=""><dc:format>image/svg+xml</dc:format><dc:type
           rdf:resource="http://purl.org/dc/dcmitype/StillImage" /><dc:title></dc:title></cc:Work></rdf:RDF></metadata><defs
     id="defs6" /><sodipodi:namedview
     pagecolor="#ffffff"
     bordercolor="#666666"
     borderopacity="1"
     objecttolerance="10"
     gridtolerance="10"
     guidetolerance="10"
     inkscape:pageopacity="0"
     inkscape:pageshadow="2"
     inkscape:window-width="3840"
     inkscape:window-height="2096"
     id="namedview4"
     showgrid="false"
     units="mm"
     inkscape:zoom="0.4375"
     inkscape:cx="-535.5544"
     inkscape:cy="-333.38661"
     inkscape:window-x="0"
     inkscape:window-y="27"
     inkscape:window-maximized="1"
     inkscape:current-layer="Layer_1"
     inkscape:document-rotation="0"
     showguides="true"
     inkscape:guide-bbox="true"
     lock-margins="true"
     fit-margin-top="5"
     fit-margin-left="5"
     fit-margin-right="5"
     fit-margin-bottom="5" /><path
     id="path3"
     d="m 267.92205,148.32401 -9.9341,-6.14946 c -0.0836,-0.96764 -0.17861,-1.93301 -0.2826,-2.89387 l 8.5369,-7.96265 c 0.86816,-0.80938 1.25702,-2.00762 1.0219,-3.16743 -0.22835,-1.16432 -1.0445,-2.12292 -2.15458,-2.53665 l -10.91303,-4.0808 c -0.27356,-0.94504 -0.56069,-1.88328 -0.8546,-2.817 l 6.80737,-9.45481 c 0.69407,-0.96084 0.8365,-2.21109 0.38434,-3.30759 -0.45216,-1.09198 -1.44015,-1.87423 -2.609,-2.06641 l -11.50764,-1.87196 c -0.44764,-0.87268 -0.91337,-1.73181 -1.38363,-2.584136 l 4.83593,-10.614611 c 0.49511,-1.080676 0.39338,-2.337704 -0.26678,-3.3189 -0.65791,-0.985723 -1.77249,-1.562237 -2.96169,-1.51702 l -11.67946,0.406949 c -0.60365,-0.755117 -1.2186,-1.503456 -1.84485,-2.238223 l 2.68361,-11.376507 c 0.2713,-1.155288 -0.0701,-2.36483 -0.91111,-3.203604 -0.83425,-0.836507 -2.04605,-1.182416 -3.20134,-0.911111 l -11.37425,2.681345 c -0.73703,-0.623991 -1.48536,-1.241197 -2.24275,-1.844838 l 0.40921,-11.679468 c 0.0453,-1.182415 -0.53129,-2.30605 -1.51702,-2.961687 -0.98798,-0.660163 -2.23822,-0.759643 -3.31664,-0.269037 L 203.0339,57.42271 c -0.85686,-0.470256 -1.71598,-0.935986 -2.58414,-1.385893 l -1.87649,-11.5099 c -0.18991,-1.166584 -0.97216,-2.156833 -2.06641,-2.609 -1.09198,-0.454424 -2.34447,-0.307471 -3.30533,0.384348 l -9.46158,6.807365 c -0.93146,-0.296172 -1.86745,-0.581033 -2.81248,-0.852337 l -4.08081,-10.915298 c -0.41372,-1.11233 -1.37232,-1.92849 -2.53664,-2.159096 -1.16207,-0.228343 -2.35806,0.158259 -3.16517,1.021897 l -7.96265,8.54369 c -0.96086,-0.106266 -1.9285,-0.203479 -2.89387,-0.282609 l -6.14946,-9.936359 c -0.62173,-1.00607 -1.72276,-1.618756 -2.90743,-1.618756 -1.18468,0 -2.28571,0.612686 -2.90518,1.618756 l -6.14946,9.936359 c -0.96764,0.07913 -1.93528,0.176343 -2.89612,0.282609 l -7.96492,-8.54369 c -0.80712,-0.863638 -2.00536,-1.25024 -3.16516,-1.021897 -1.16434,0.232866 -2.12292,1.046766 -2.53667,2.159096 l -4.08079,10.915298 c -0.94503,0.271304 -1.88101,0.558424 -2.81474,0.852337 l -9.45932,-6.807365 c -0.96086,-0.69408 -2.21336,-0.841033 -3.3076,-0.384348 -1.09198,0.452167 -1.87649,1.442416 -2.0664,2.609 l -1.8765,11.5099 c -0.86815,0.449907 -1.72727,0.913378 -2.584115,1.385893 L 88.812113,52.584532 c -1.078417,-0.492866 -2.335445,-0.391126 -3.316641,0.269037 -0.985723,0.655637 -1.562237,1.779272 -1.51702,2.961687 l 0.406949,11.679468 c -0.755117,0.603641 -1.503456,1.220847 -2.24275,1.844838 L 70.768412,66.658217 c -1.155296,-0.269045 -2.367098,0.0746 -3.203605,0.911111 -0.841025,0.838774 -1.182415,2.048316 -0.911111,3.203604 l 2.679078,11.376507 c -0.621724,0.737034 -1.23667,1.483106 -1.840311,2.238223 L 55.812998,83.980713 c -1.177889,-0.03393 -2.303783,0.531297 -2.961687,1.51702 -0.660163,0.981196 -0.759643,2.238224 -0.269037,3.3189 l 4.838178,10.614611 c -0.470248,0.852326 -0.935986,1.711456 -1.385893,2.584136 l -11.507633,1.87196 c -1.168851,0.18992 -2.154574,0.97217 -2.609,2.06641 -0.452174,1.0965 -0.305217,2.34675 0.38434,3.30759 l 6.807365,9.45481 c -0.296164,0.93372 -0.583292,1.87196 -0.854589,2.817 l -10.915302,4.0808 c -1.107812,0.41373 -1.923977,1.37233 -2.154582,2.53665 -0.230599,1.16207 0.156009,2.35805 1.021902,3.16743 l 8.539168,7.96265 c -0.106258,0.96086 -0.201212,1.92849 -0.282609,2.89387 l -9.934099,6.14946 c -1.006072,0.62173 -1.618758,1.7205 -1.618758,2.90743 0,1.18694 0.612686,2.2857 1.618758,2.90518 l 9.934099,6.14946 c 0.0814,0.96764 0.176351,1.93301 0.282609,2.89386 l -8.539168,7.96492 c -0.865893,0.80712 -1.252501,2.00536 -1.021902,3.16516 0.230605,1.16433 1.04677,2.12066 2.154582,2.53665 l 10.915302,4.08081 c 0.271297,0.94503 0.558425,1.88327 0.854589,2.817 l -6.807365,9.45705 c -0.691817,0.96313 -0.838773,2.21336 -0.38434,3.30535 0.454426,1.0965 1.442408,1.87875 2.61126,2.0664 l 11.505373,1.87197 c 0.449907,0.87268 0.911118,1.73179 1.385893,2.58865 l -4.838178,10.61009 c -0.492866,1.07841 -0.391126,2.33317 0.269037,3.3189 0.660164,0.98799 1.783798,1.56449 2.961687,1.51702 l 11.674946,-0.40921 c 0.60816,0.75964 1.220847,1.50345 1.84483,2.24275 l -2.679078,11.37877 c -0.271304,1.15302 0.07008,2.35804 0.911111,3.19681 0.834248,0.84329 2.048309,1.18016 3.203605,0.90886 l 11.374239,-2.67909 c 0.739294,0.62851 1.487633,1.23894 2.24275,1.84032 l -0.406949,11.68172 c -0.04526,1.18242 0.531297,2.30379 1.51702,2.96395 0.981196,0.65791 2.238224,0.75738 3.316641,0.26452 l 10.612352,-4.83592 c 0.854585,0.47478 1.713695,0.93598 2.584115,1.38589 l 1.8765,11.50312 c 0.18991,1.17111 0.97216,2.16135 2.0664,2.61126 1.09198,0.45442 2.34674,0.30747 3.3076,-0.38209 l 9.4548,-6.81188 c 0.93372,0.29616 1.87197,0.58556 2.817,0.85685 l 4.0808,10.91078 c 0.41373,1.1078 1.37233,1.92849 2.53665,2.15458 1.16207,0.23512 2.35805,-0.15374 3.16517,-1.0219 l 7.96492,-8.53917 c 0.96084,0.11079 1.92848,0.20348 2.89612,0.28939 l 6.14946,9.9341 c 0.61947,1.00154 1.72049,1.61876 2.90517,1.61876 1.18468,0 2.28571,-0.61496 2.90744,-1.61876 l 6.14946,-9.9341 c 0.96763,-0.0859 1.93301,-0.1786 2.89387,-0.28939 l 7.96264,8.53917 c 0.80712,0.86816 2.00537,1.25702 3.16518,1.0219 1.16432,-0.22835 2.12292,-1.04678 2.53664,-2.15458 l 4.08081,-10.91078 c 0.94503,-0.27129 1.88328,-0.56069 2.817,-0.85685 l 9.45706,6.81188 c 0.96085,0.68956 2.21335,0.83651 3.30533,0.38209 1.09425,-0.44991 1.8765,-1.44241 2.0664,-2.61126 l 1.8765,-11.50312 c 0.86816,-0.44991 1.72727,-0.9179 2.58414,-1.38589 l 10.61234,4.83592 c 1.07842,0.49286 2.33318,0.39339 3.31664,-0.26452 0.98573,-0.66016 1.55998,-1.77927 1.51702,-2.96395 l -0.40695,-11.68172 c 0.75512,-0.60364 1.50346,-1.21181 2.24048,-1.84032 l 11.37426,2.67909 c 1.15528,0.2713 2.36709,-0.0656 3.20134,-0.90886 0.84102,-0.83877 1.18241,-2.04379 0.91112,-3.19681 l -2.6791,-11.37877 c 0.62399,-0.7393 1.23894,-1.48311 1.84032,-2.24275 l 11.67947,0.40921 c 1.17789,0.0475 2.30378,-0.52903 2.96168,-1.51702 0.66017,-0.98573 0.76191,-2.24049 0.26678,-3.3189 l -4.83592,-10.61009 c 0.47252,-0.85686 0.93598,-1.71597 1.38363,-2.58865 l 11.50764,-1.87197 c 1.17111,-0.18765 2.15683,-0.9699 2.609,-2.0664 0.45216,-1.09199 0.30973,-2.34222 -0.38434,-3.30535 l -6.80737,-9.45705 c 0.29391,-0.93373 0.58104,-1.87197 0.8546,-2.817 l 10.91304,-4.08081 c 1.11007,-0.41599 1.92848,-1.37232 2.15457,-2.53665 0.23512,-1.16206 -0.15373,-2.35804 -1.0219,-3.16516 l -8.5369,-7.96492 c 0.104,-0.96085 0.19895,-1.92848 0.2826,-2.89386 l 9.9341,-6.14946 c 1.00607,-0.61948 1.61876,-1.7205 1.61876,-2.90518 0,-1.18467 -0.61043,-2.2857 -1.6165,-2.90743 z m -66.48882,82.40961 c -3.79369,-0.81842 -6.20599,-4.55784 -5.39209,-8.36282 0.81163,-3.80045 4.54879,-6.21955 8.3402,-5.40113 3.79368,0.81165 6.21051,4.55784 5.39661,8.35604 -0.8139,3.7982 -4.55332,6.21955 -8.34472,5.40791 z m -3.37543,-22.82989 c -3.46133,-0.74155 -6.86615,1.4605 -7.6077,4.92862 l -3.52691,16.45886 c -10.88364,4.93992 -22.97004,7.68457 -35.69854,7.68457 -13.02013,0 -25.3688,-2.8803 -36.44688,-8.03048 l -3.52464,-16.45886 c -0.74155,-3.46359 -4.14637,-5.67017 -7.60544,-4.92636 l -14.53036,3.11995 c -2.697183,-2.7763 -5.206704,-5.73347 -7.512754,-8.85567 h 70.700754 c 0.80033,0 1.3339,-0.1447 1.3339,-0.87269 v -25.00933 c 0,-0.72799 -0.53357,-0.87268 -1.3339,-0.87268 H 131.62776 V 159.2167 h 22.36414 c 2.04154,0 10.91531,0.5833 13.75265,11.92589 0.88851,3.48846 2.83961,14.83559 4.1735,18.46875 1.32937,4.07401 6.74181,12.21302 12.50919,12.21302 h 35.23056 c 0.40017,0 0.82747,-0.0453 1.27737,-0.12661 -2.44396,3.32116 -5.12531,6.46372 -8.0124,9.40054 z m -97.78554,22.48625 c -3.793667,0.81842 -7.528561,-1.60067 -8.344718,-5.40113 -0.811639,-3.80725 1.600668,-7.5444 5.394344,-8.36282 3.793674,-0.81165 7.530834,1.60745 8.344724,5.40791 0.81164,3.7982 -1.60292,7.54214 -5.39435,8.35604 z M 73.452016,121.63262 c 1.573542,3.55177 -0.02719,7.71396 -3.574373,9.28524 -3.547246,1.5758 -7.698142,-0.0272 -9.271676,-3.58116 -1.573541,-3.55403 0.02719,-7.70944 3.574374,-9.28523 3.549505,-1.57355 7.698134,0.0271 9.271675,3.58115 z m -8.242994,19.54038 15.136276,-6.72598 c 3.232983,-1.43563 4.693481,-5.22479 3.257851,-8.46455 l -3.117681,-7.04928 h 12.26049 v 55.26379 h -24.73577 c -2.145529,-7.54214 -3.296291,-15.50253 -3.296291,-23.7297 0,-3.1403 0.169565,-6.24441 0.495125,-9.29428 z m 66.423258,-5.36722 v -16.2893 h 29.19639 c 1.50798,0 10.64852,1.7431 10.64852,8.5776 0,5.67469 -7.01085,7.70944 -12.77597,7.70944 h -27.06894 z m 106.1054,14.6615 c 0,2.16135 -0.0791,4.3001 -0.23739,6.42302 h -8.87603 c -0.88851,0 -1.24572,0.58331 -1.24572,1.45372 v 4.07628 c 0,9.59498 -5.41018,11.68173 -10.15113,12.21302 -4.5149,0.50869 -9.52038,-1.89006 -10.13758,-4.6528 -2.66326,-14.98027 -7.10128,-18.17935 -14.10986,-23.70709 8.69742,-5.52321 17.74753,-13.67126 17.74753,-24.57751 0,-11.77667 -8.07343,-19.19446 -13.5763,-22.832145 -7.72074,-5.089134 -16.26895,-6.10877 -18.57499,-6.10877 H 86.779627 C 99.227764,78.862185 116.0981,69.020781 135.17952,65.439626 l 10.82034,11.351641 c 2.44623,2.561524 6.49764,2.656477 9.05691,0.207997 l 12.10675,-11.579987 c 25.36881,4.722879 46.84672,20.514799 59.22477,42.180353 l -8.2882,18.7197 c -1.43112,3.23977 0.0294,7.02892 3.26011,8.46455 l 15.95696,7.08771 c 0.27582,2.83283 0.42052,5.69504 0.42052,8.59569 z m -91.7333,-94.68367 c 2.80344,-2.685872 7.25051,-2.579614 9.93411,0.228339 2.67909,2.814738 2.57735,7.266317 -0.23287,9.949932 -2.80343,2.685864 -7.25049,2.581865 -9.93409,-0.230609 -2.67683,-2.810219 -2.5751,-7.261798 0.23285,-9.947662 z m 82.24911,66.1904 c 1.57127,-3.55178 5.72216,-5.1547 9.2694,-3.5789 3.54725,1.57354 5.14793,5.73347 3.57439,9.28524 -1.57129,3.55403 -5.72217,5.15696 -9.27169,3.58116 -3.54272,-1.57355 -5.14339,-5.73121 -3.5721,-9.2875 z"
     style="stroke-width:2.26083" /></svg>
