<?xml version="1.0" encoding="UTF-8" standalone="no"?>
<svg
   xmlns:dc="http://purl.org/dc/elements/1.1/"
   xmlns:cc="http://creativecommons.org/ns#"
   xmlns:rdf="http://www.w3.org/1999/02/22-rdf-syntax-ns#"
   xmlns:svg="http://www.w3.org/2000/svg"
   xmlns="http://www.w3.org/2000/svg"
   xmlns:sodipodi="http://sodipodi.sourceforge.net/DTD/sodipodi-0.dtd"
   xmlns:inkscape="http://www.inkscape.org/namespaces/inkscape"
   xml:space="preserve"
   viewBox="19 19 426.90848 264.45383"
   height="95.053688mm"
   width="153.4454mm"
   y="0px"
   x="0px"
   id="Layer_1"
   version="1.1"
   sodipodi:docname="rust-language.svg"
   inkscape:version="1.0.1 (3bc2e813f5, 2020-09-07)"><metadata
     id="metadata8"><rdf:RDF><cc:Work
         rdf:about=""><dc:format>image/svg+xml</dc:format><dc:type
           rdf:resource="http://purl.org/dc/dcmitype/StillImage" /><dc:title></dc:title></cc:Work></rdf:RDF></metadata><defs
     id="defs6" /><sodipodi:namedview
     pagecolor="#ffffff"
     bordercolor="#666666"
     borderopacity="1"
     objecttolerance="10"
     gridtolerance="10"
     guidetolerance="10"
     inkscape:pageopacity="0"
     inkscape:pageshadow="2"
     inkscape:window-width="1844"
     inkscape:window-height="1236"
     id="namedview4"
     showgrid="false"
     units="mm"
     inkscape:zoom="0.4375"
     inkscape:cx="-170.98298"
     inkscape:cy="-333.38661"
     inkscape:window-x="8"
     inkscape:window-y="35"
     inkscape:window-maximized="0"
     inkscape:current-layer="Layer_1"
     inkscape:document-rotation="0"
     showguides="true"
     inkscape:guide-bbox="true"
     lock-margins="true"
     fit-margin-top="5"
     fit-margin-left="5"
     fit-margin-right="5"
     fit-margin-bottom="5" /><g
     id="g16"
     transform="matrix(0.76587758,0,0,0.76587758,-117.85393,-10.728544)"><path
       id="path3"
       d="m 503.7045,207.6736 -12.97088,-8.0293 c -0.10921,-1.26344 -0.2332,-2.52392 -0.36899,-3.7785 l 11.14656,-10.39677 c 1.13356,-1.0568 1.64129,-2.62133 1.33429,-4.13568 -0.29815,-1.52025 -1.3638,-2.77188 -2.81321,-3.31209 l -14.24906,-5.32827 c -0.35719,-1.23392 -0.73209,-2.45898 -1.11584,-3.67813 l 8.88832,-12.34506 c 0.90625,-1.25457 1.09222,-2.88701 0.50183,-4.3187 -0.59038,-1.42579 -1.88039,-2.44717 -3.40655,-2.69809 l -15.02543,-2.44421 c -0.58448,-1.13945 -1.19258,-2.2612 -1.80659,-3.37408 l 6.31423,-13.85941 c 0.64647,-1.41103 0.51364,-3.05232 -0.34833,-4.33346 -0.85903,-1.28705 -2.31433,-2.0398 -3.86706,-1.98076 l -15.24977,0.53135 c -0.78818,-0.98595 -1.59111,-1.96305 -2.4088,-2.92243 l 3.50397,-14.85421 c 0.35423,-1.50845 -0.0915,-3.08774 -1.18964,-4.18292 -1.08927,-1.09222 -2.67151,-1.54387 -4.17996,-1.18963 l -14.85126,3.50101 c -0.96234,-0.81474 -1.93943,-1.62062 -2.92834,-2.40879 l 0.5343,-15.249784 c 0.0591,-1.54387 -0.6937,-3.01099 -1.98076,-3.86705 -1.29,-0.86197 -2.92242,-0.99186 -4.33051,-0.35128 l -13.85645,6.31717 c -1.11879,-0.61401 -2.24053,-1.22211 -3.37409,-1.80955 l -2.45011,-15.02838 c -0.24796,-1.5232 -1.26934,-2.81616 -2.69809,-3.40655 -1.42579,-0.593338 -3.06116,-0.401462 -4.31575,0.50184 l -12.35391,8.88832 c -1.2162,-0.38671 -2.43831,-0.75865 -3.67223,-1.11289 l -5.32827,-14.252014 c -0.5402,-1.452359 -1.79183,-2.518013 -3.31208,-2.819113 -1.5173,-0.298146 -3.07889,0.206637 -4.13273,1.334282 l -10.39677,11.155425 c -1.25458,-0.13875 -2.51802,-0.26568 -3.7785,-0.369 l -8.0293,-12.973821 c -0.81179,-1.313617 -2.24939,-2.113596 -3.79621,-2.113596 -1.54682,0 -2.98443,0.799979 -3.79326,2.113596 l -8.02931,12.973821 c -1.26343,0.10332 -2.52687,0.23025 -3.78144,0.369 L 325.33879,61.280471 c -1.05384,-1.127645 -2.61837,-1.632428 -4.13272,-1.334282 -1.52026,0.304051 -2.77188,1.366754 -3.3121,2.819113 l -5.32826,14.252014 c -1.23392,0.35424 -2.45602,0.72913 -3.67518,1.11289 l -12.35096,-8.88832 c -1.25458,-0.906254 -2.88996,-1.09813 -4.3187,-0.50184 -1.42579,0.59039 -2.45012,1.88335 -2.69809,3.40655 l -2.45012,15.02838 c -1.13354,0.58744 -2.25529,1.19259 -3.37407,1.80955 l -13.85646,-6.31717 c -1.40808,-0.64353 -3.04937,-0.51069 -4.33051,0.35128 -1.28705,0.85606 -2.0398,2.32318 -1.98076,3.86705 l 0.53135,15.249784 c -0.98595,0.78817 -1.96305,1.59405 -2.92834,2.40879 l -14.85125,-3.50101 c -1.50846,-0.35129 -3.0907,0.0974 -4.18292,1.18963 -1.09812,1.09518 -1.54387,2.67447 -1.18963,4.18292 l 3.49805,14.85421 c -0.81178,0.96234 -1.61471,1.93648 -2.40288,2.92243 l -15.24978,-0.53135 c -1.53796,-0.0443 -3.00803,0.69371 -3.86705,1.98076 -0.86197,1.28114 -0.99186,2.92243 -0.35128,4.33346 l 6.31717,13.85941 c -0.614,1.11288 -1.22211,2.23463 -1.80955,3.37408 l -15.02542,2.44421 c -1.52616,0.24797 -2.81321,1.26935 -3.40655,2.69809 -0.5904,1.43169 -0.39852,3.06413 0.50183,4.3187 l 8.88832,12.34506 c -0.3867,1.21915 -0.7616,2.44421 -1.11583,3.67813 l -14.25202,5.32827 c -1.44646,0.54021 -2.51212,1.79184 -2.81322,3.31209 -0.30109,1.5173 0.2037,3.07888 1.33429,4.13568 l 11.14952,10.39677 c -0.13874,1.25458 -0.26272,2.51801 -0.369,3.7785 l -12.97087,8.0293 c -1.31362,0.81179 -2.1136,2.24644 -2.1136,3.79621 0,1.54977 0.79998,2.98442 2.1136,3.79326 l 12.97087,8.0293 c 0.10628,1.26344 0.23026,2.52392 0.369,3.7785 l -11.14952,10.39972 c -1.13059,1.05385 -1.63538,2.61838 -1.33429,4.13273 0.3011,1.52025 1.36676,2.76893 2.81322,3.31208 l 14.25202,5.32828 c 0.35423,1.23392 0.72913,2.45897 1.11583,3.67813 l -8.88832,12.348 c -0.9033,1.25754 -1.09518,2.88996 -0.50183,4.31576 0.59334,1.43169 1.88334,2.45307 3.4095,2.69808 l 15.02247,2.44422 c 0.58744,1.13945 1.18964,2.26119 1.80955,3.37998 l -6.31717,13.8535 c -0.64353,1.40808 -0.51069,3.04641 0.35128,4.33347 0.86197,1.29 2.32909,2.04274 3.86705,1.98075 l 15.24388,-0.53429 c 0.79407,0.99185 1.59405,1.96304 2.40878,2.92833 l -3.49805,14.85717 c -0.35424,1.50549 0.0915,3.07887 1.18963,4.17405 1.08927,1.10108 2.67446,1.54092 4.18292,1.18669 l 14.85125,-3.49807 c 0.96529,0.82065 1.94239,1.61768 2.92834,2.40289 l -0.53135,15.25273 c -0.0591,1.54387 0.69371,3.00804 1.98076,3.87001 1.28114,0.85902 2.92243,0.9889 4.33051,0.34538 l 13.85646,-6.31423 c 1.11583,0.61992 2.23757,1.22211 3.37407,1.80955 l 2.45012,15.01953 c 0.24797,1.52911 1.26934,2.82206 2.69809,3.4095 1.42578,0.59333 3.06412,0.40146 4.3187,-0.49889 l 12.34506,-8.89422 c 1.21915,0.3867 2.44421,0.76456 3.67813,1.11879 l 5.32826,14.24611 c 0.54021,1.44645 1.79184,2.51801 3.31209,2.81321 1.51731,0.307 3.07889,-0.20073 4.13273,-1.33428 l 10.39973,-11.14952 c 1.25457,0.14465 2.51801,0.26568 3.78144,0.37785 l 8.02931,12.97087 c 0.80883,1.30771 2.24643,2.1136 3.79325,2.1136 1.54683,0 2.98443,-0.80294 3.79622,-2.1136 l 8.0293,-12.97087 c 1.26343,-0.11217 2.52392,-0.2332 3.7785,-0.37785 l 10.39676,11.14952 c 1.05385,1.13355 2.61839,1.64128 4.13274,1.33428 1.52025,-0.29815 2.77188,-1.36676 3.31208,-2.81321 l 5.32827,-14.24611 c 1.23392,-0.35423 2.45898,-0.73209 3.67814,-1.11879 l 12.348,8.89422 c 1.25458,0.90035 2.88996,1.09222 4.31575,0.49889 1.42875,-0.58744 2.45013,-1.88335 2.69808,-3.4095 l 2.45012,-15.01953 c 1.13356,-0.58744 2.25529,-1.19849 3.37409,-1.80955 l 13.85645,6.31423 c 1.40808,0.64352 3.04641,0.51364 4.33051,-0.34538 1.28706,-0.86197 2.03685,-2.32319 1.98076,-3.87001 l -0.53135,-15.25273 c 0.98595,-0.78817 1.96305,-1.58224 2.92538,-2.40289 l 14.85127,3.49807 c 1.50844,0.35423 3.09069,-0.0856 4.17996,-1.18669 1.09812,-1.09518 1.54387,-2.66856 1.18964,-4.17405 l -3.49807,-14.85717 c 0.81474,-0.96529 1.61767,-1.93648 2.40289,-2.92833 l 15.24978,0.53429 c 1.53796,0.062 3.00803,-0.69075 3.86705,-1.98075 0.86197,-1.28706 0.99481,-2.92539 0.34833,-4.33347 l -6.31422,-13.8535 c 0.61696,-1.11879 1.2221,-2.24053 1.80659,-3.37998 l 15.02543,-2.44422 c 1.52911,-0.24501 2.81616,-1.26639 3.40655,-2.69808 0.59039,-1.4258 0.40442,-3.05822 -0.50183,-4.31576 l -8.88832,-12.348 c 0.38375,-1.21916 0.75865,-2.44421 1.11584,-3.67813 l 14.24906,-5.32828 c 1.44941,-0.54315 2.51801,-1.79183 2.81321,-3.31208 0.307,-1.5173 -0.20073,-3.07888 -1.33429,-4.13273 l -11.14656,-10.39972 c 0.13579,-1.25458 0.25977,-2.51801 0.36899,-3.7785 l 12.97087,-8.0293 c 1.31362,-0.80884 2.1136,-2.24644 2.1136,-3.79326 0,-1.54682 -0.79703,-2.98442 -2.11064,-3.79621 z m -86.81391,107.60155 c -4.95338,-1.06861 -8.10311,-5.95114 -7.0404,-10.91927 1.05974,-4.96222 5.93932,-8.12082 10.88973,-7.05221 4.95338,1.05976 8.10901,5.95113 7.04631,10.91041 -1.0627,4.95928 -5.94523,8.12082 -10.89564,7.06107 z m -4.40727,-29.8088 c -4.51943,-0.96824 -8.96507,1.90696 -9.93331,6.43525 l -4.60505,21.4902 c -14.21068,6.45001 -29.9918,10.03368 -46.61129,10.03368 -17.00028,0 -33.12383,-3.76078 -47.58839,-10.48533 l -4.60209,-21.4902 c -0.96824,-4.52238 -5.41388,-7.40349 -9.93036,-6.4323 l -18.97218,4.07369 c -3.52169,-3.62499 -6.79835,-7.48615 -9.80934,-11.56278 h 92.3134 c 1.04498,0 1.74165,-0.18893 1.74165,-1.13946 v -32.65447 c 0,-0.95053 -0.69667,-1.13946 -1.74165,-1.13946 h -26.99854 v -20.69908 h 29.20068 c 2.66562,0 14.25202,0.76161 17.95672,15.57154 1.16012,4.55486 3.70765,19.37071 5.4493,24.11449 1.73575,5.31941 8.80272,15.94644 16.33314,15.94644 h 46.00025 c 0.5225,0 1.08042,-0.0591 1.66785,-0.16531 -3.19105,4.33641 -6.69207,8.43962 -10.46172,12.2742 z m -127.67776,29.3601 c -4.95337,1.06861 -9.82999,-2.08998 -10.89564,-7.05221 -1.05975,-4.97109 2.08998,-9.85066 7.04335,-10.91926 4.95337,-1.05976 9.83295,2.09884 10.89565,7.06106 1.05975,4.95928 -2.09293,9.84771 -7.04336,10.91041 z M 249.78658,172.82287 c 2.05456,4.63752 -0.0355,10.07206 -4.66703,12.12367 -4.63161,2.0575 -10.0514,-0.0355 -12.10595,-4.6759 -2.05456,-4.64046 0.0355,-10.06615 4.66703,-12.12365 4.63456,-2.05456 10.05139,0.0354 12.10595,4.67588 z m -10.76281,25.51371 19.76331,-8.78205 c 4.22128,-1.87449 6.12824,-6.82196 4.25375,-11.0521 l -4.07073,-9.20418 h 16.00842 v 72.15747 h -32.29729 c -2.8014,-9.84771 -4.30394,-20.24152 -4.30394,-30.98367 0,-4.10026 0.2214,-8.15328 0.64648,-12.13547 z m 86.7283,-7.00793 v -21.2688 h 38.12149 c 1.96895,0 13.90368,2.27595 13.90368,11.1997 0,7.40939 -9.154,10.06615 -16.68147,10.06615 h -35.3437 z m 138.54094,19.1434 c 0,2.82206 -0.10332,5.61461 -0.30996,8.38649 H 452.3937 c -1.16012,0 -1.62653,0.76161 -1.62653,1.8981 v 5.32237 c 0,12.52808 -7.06402,15.25273 -13.25425,15.94644 -5.89506,0.66419 -12.43068,-2.46784 -13.23655,-6.07512 -3.4774,-19.55962 -9.27208,-23.73663 -18.42313,-30.95415 11.35615,-7.21162 23.17281,-17.85045 23.17281,-32.09065 0,-15.37671 -10.54141,-25.06206 -17.72646,-29.81175 -10.08091,-6.64484 -21.24224,-7.97617 -24.25322,-7.97617 H 267.18833 c 16.25343,-18.13974 38.28089,-30.98958 63.19535,-35.665464 l 14.12803,14.821744 c 3.19401,3.34456 8.48391,3.46854 11.82552,0.27158 l 15.80769,-15.119894 c 33.12384,6.166624 61.16737,26.786004 77.32929,55.074534 l -10.82184,24.44216 c -1.86859,4.23014 0.0384,9.17761 4.25671,11.0521 l 20.83486,9.25436 c 0.36014,3.6988 0.54907,7.43596 0.54907,11.22332 z M 344.51761,86.844366 c 3.66043,-3.50692 9.46692,-3.36818 12.97088,0.29814 3.49806,3.67518 3.36522,9.48757 -0.30406,12.991544 -3.66041,3.50691 -9.4669,3.37112 -12.97086,-0.301104 -3.49511,-3.66928 -3.36228,-9.48167 0.30404,-12.98858 z m 107.39197,86.424254 c 2.0516,-4.63752 7.47138,-6.73045 12.10299,-4.67294 4.63161,2.05456 6.7216,7.48615 4.66704,12.12366 -2.05161,4.64047 -7.47139,6.7334 -12.10596,4.67589 -4.6257,-2.05456 -6.71568,-7.48319 -4.66407,-12.12661 z"
       style="stroke-width:2.95195" /><text
       xml:space="preserve"
       style="font-style:normal;font-variant:normal;font-weight:bold;font-stretch:normal;font-size:29.7301px;line-height:1.25;font-family:Muli;-inkscape-font-specification:'Muli Bold';word-spacing:0px;stroke-width:0.743255"
       x="510.5882"
       y="277.31259"
       id="text12"><tspan
         sodipodi:role="line"
         id="tspan10"
         x="510.5882"
         y="277.31259"
         style="font-style:normal;font-variant:normal;font-weight:bold;font-stretch:normal;font-size:142.704px;font-family:Muli;-inkscape-font-specification:'Muli Bold';stroke-width:0.743255"
         rotate="0 0">ust</tspan></text></g></svg>
